<svg width="256" height="256" viewBox="0 0 256 256" fill="none" xmlns="http://www.w3.org/2000/svg">
<g clip-path="url(#clip0_32_22)">
<rect width="256" height="256" rx="35" fill="#A066FF"/>
<g filter="url(#filter0_d_32_22)">
<mask id="mask0_32_22" style="mask-type:alpha" maskUnits="userSpaceOnUse" x="31" y="30" width="195" height="195">
<path fill-rule="evenodd" clip-rule="evenodd" d="M226 127.5C226 181.348 182.348 225 128.5 225C74.6522 225 31 181.348 31 127.5C31 73.6522 74.6522 30 128.5 30C182.348 30 226 73.6522 226 127.5ZM116 67.5C116 60.5964 121.596 55 128.5 55C135.404 55 141 60.5964 141 67.5V145H160.818C164.971 145 167.314 149.771 164.774 153.057L132.456 194.88C130.455 197.47 126.545 197.47 124.544 194.88L92.2261 153.057C89.6864 149.771 92.029 145 96.1825 145H116V67.5Z" fill="white"/>
</mask>
<g mask="url(#mask0_32_22)">
<g filter="url(#filter1_f_32_22)">
<path fill-rule="evenodd" clip-rule="evenodd" d="M226 127.5C226 181.348 182.348 225 128.5 225C74.6522 225 31 181.348 31 127.5C31 73.6522 74.6522 30 128.5 30C182.348 30 226 73.6522 226 127.5ZM116 67.5C116 60.5964 121.596 55 128.5 55C135.404 55 141 60.5964 141 67.5V145H160.818C164.971 145 167.314 149.771 164.774 153.057L132.456 194.88C130.455 197.47 126.545 197.47 124.544 194.88L92.2261 153.057C89.6864 149.771 92.029 145 96.1825 145H116V67.5Z" fill="white"/>
</g>
</g>
</g>
</g>
<defs>
<filter id="filter0_d_32_22" x="27" y="30" width="203" height="203" filterUnits="userSpaceOnUse" color-interpolation-filters="sRGB">
<feFlood flood-opacity="0" result="BackgroundImageFix"/>
<feColorMatrix in="SourceAlpha" type="matrix" values="0 0 0 0 0 0 0 0 0 0 0 0 0 0 0 0 0 0 127 0" result="hardAlpha"/>
<feOffset dy="4"/>
<feGaussianBlur stdDeviation="2"/>
<feComposite in2="hardAlpha" operator="out"/>
<feColorMatrix type="matrix" values="0 0 0 0 0 0 0 0 0 0 0 0 0 0 0 0 0 0 0.25 0"/>
<feBlend mode="normal" in2="BackgroundImageFix" result="effect1_dropShadow_32_22"/>
<feBlend mode="normal" in="SourceGraphic" in2="effect1_dropShadow_32_22" result="shape"/>
</filter>
<filter id="filter1_f_32_22" x="27" y="26" width="203" height="203" filterUnits="userSpaceOnUse" color-interpolation-filters="sRGB">
<feFlood flood-opacity="0" result="BackgroundImageFix"/>
<feBlend mode="normal" in="SourceGraphic" in2="BackgroundImageFix" result="shape"/>
<feGaussianBlur stdDeviation="2" result="effect1_foregroundBlur_32_22"/>
</filter>
<clipPath id="clip0_32_22">
<rect width="256" height="256" fill="white"/>
</clipPath>
</defs>
</svg>
