<svg width="512" height="512" viewBox="0 0 512 512" fill="none" xmlns="http://www.w3.org/2000/svg">
<g clip-path="url(#clip0_5_90)">
<rect width="512" height="512" rx="125" fill="#A6E39C"/>
<rect x="91" y="91" width="330" height="330" rx="40" fill="white"/>
<path d="M197.182 351.545C185.182 351.545 174.485 349.485 165.091 345.364C155.758 341.242 148.333 335.515 142.818 328.182C137.364 320.788 134.394 312.212 133.909 302.455H156.818C157.303 308.455 159.364 313.636 163 318C166.636 322.303 171.394 325.636 177.273 328C183.152 330.364 189.667 331.545 196.818 331.545C204.818 331.545 211.909 330.152 218.091 327.364C224.273 324.576 229.121 320.697 232.636 315.727C236.152 310.758 237.909 305 237.909 298.455C237.909 291.606 236.212 285.576 232.818 280.364C229.424 275.091 224.455 270.97 217.909 268C211.364 265.03 203.364 263.545 193.909 263.545H179V243.545H193.909C201.303 243.545 207.788 242.212 213.364 239.545C219 236.879 223.394 233.121 226.545 228.273C229.758 223.424 231.364 217.727 231.364 211.182C231.364 204.879 229.97 199.394 227.182 194.727C224.394 190.061 220.455 186.424 215.364 183.818C210.333 181.212 204.394 179.909 197.545 179.909C191.121 179.909 185.061 181.091 179.364 183.455C173.727 185.758 169.121 189.121 165.545 193.545C161.97 197.909 160.03 203.182 159.727 209.364H137.909C138.273 199.606 141.212 191.061 146.727 183.727C152.242 176.333 159.455 170.576 168.364 166.455C177.333 162.333 187.182 160.273 197.909 160.273C209.424 160.273 219.303 162.606 227.545 167.273C235.788 171.879 242.121 177.97 246.545 185.545C250.97 193.121 253.182 201.303 253.182 210.091C253.182 220.576 250.424 229.515 244.909 236.909C239.455 244.303 232.03 249.424 222.636 252.273V253.727C234.394 255.667 243.576 260.667 250.182 268.727C256.788 276.727 260.091 286.636 260.091 298.455C260.091 308.576 257.333 317.667 251.818 325.727C246.364 333.727 238.909 340.03 229.455 344.636C220 349.242 209.242 351.545 197.182 351.545ZM362.727 162.818V349H340.182V186.455H339.091L293.636 216.636V193.727L340.182 162.818H362.727Z" fill="#A6E39C"/>
</g>
<defs>
<clipPath id="clip0_5_90">
<rect width="512" height="512" fill="white"/>
</clipPath>
</defs>
</svg>
