<svg width="256" height="256" viewBox="0 0 256 256" fill="none" xmlns="http://www.w3.org/2000/svg">
<g clip-path="url(#clip0_20_2)">
<rect width="256" height="256" rx="35" fill="#A6E39C"/>
<g filter="url(#filter0_d_20_2)">
<mask id="mask0_20_2" style="mask-type:alpha" maskUnits="userSpaceOnUse" x="45" y="46" width="165" height="165">
<rect x="45" y="46" width="165" height="165" rx="30" fill="white"/>
</mask>
<g mask="url(#mask0_20_2)">
<g filter="url(#filter1_f_20_2)">
<rect x="45" y="46" width="165" height="165" rx="30" fill="white"/>
</g>
</g>
</g>
<g filter="url(#filter2_i_20_2)">
<mask id="mask1_20_2" style="mask-type:alpha" maskUnits="userSpaceOnUse" x="66" y="80" width="115" height="97">
<path d="M98.0909 176.273C92.0909 176.273 86.7424 175.242 82.0455 173.182C77.3788 171.121 73.6667 168.258 70.9091 164.591C68.1818 160.894 66.697 156.606 66.4545 151.727H77.9091C78.1515 154.727 79.1818 157.318 81 159.5C82.8182 161.652 85.197 163.318 88.1364 164.5C91.0758 165.682 94.3333 166.273 97.9091 166.273C101.909 166.273 105.455 165.576 108.545 164.182C111.636 162.788 114.061 160.848 115.818 158.364C117.576 155.879 118.455 153 118.455 149.727C118.455 146.303 117.606 143.288 115.909 140.682C114.212 138.045 111.727 135.985 108.455 134.5C105.182 133.015 101.182 132.273 96.4545 132.273H89V122.273H96.4545C100.152 122.273 103.394 121.606 106.182 120.273C109 118.939 111.197 117.061 112.773 114.636C114.379 112.212 115.182 109.364 115.182 106.091C115.182 102.939 114.485 100.197 113.091 97.8636C111.697 95.5303 109.727 93.7121 107.182 92.4091C104.667 91.1061 101.697 90.4545 98.2727 90.4545C95.0606 90.4545 92.0303 91.0455 89.1818 92.2273C86.3636 93.3788 84.0606 95.0606 82.2727 97.2727C80.4848 99.4545 79.5152 102.091 79.3636 105.182H68.4545C68.6364 100.303 70.1061 96.0303 72.8636 92.3636C75.6212 88.6667 79.2273 85.7879 83.6818 83.7273C88.1667 81.6667 93.0909 80.6364 98.4545 80.6364C104.212 80.6364 109.152 81.803 113.273 84.1364C117.394 86.4394 120.561 89.4848 122.773 93.2727C124.985 97.0606 126.091 101.152 126.091 105.545C126.091 110.788 124.712 115.258 121.955 118.955C119.227 122.652 115.515 125.212 110.818 126.636V127.364C116.697 128.333 121.288 130.833 124.591 134.864C127.894 138.864 129.545 143.818 129.545 149.727C129.545 154.788 128.167 159.333 125.409 163.364C122.682 167.364 118.955 170.515 114.227 172.818C109.5 175.121 104.121 176.273 98.0909 176.273ZM180.864 81.9091V175H169.591V93.7273H169.045L146.318 108.818V97.3636L169.591 81.9091H180.864Z" fill="#A6E39C"/>
</mask>
<g mask="url(#mask1_20_2)">
<g filter="url(#filter3_f_20_2)">
<path d="M98.0909 176.273C92.0909 176.273 86.7424 175.242 82.0455 173.182C77.3788 171.121 73.6667 168.258 70.9091 164.591C68.1818 160.894 66.697 156.606 66.4545 151.727H77.9091C78.1515 154.727 79.1818 157.318 81 159.5C82.8182 161.652 85.197 163.318 88.1364 164.5C91.0758 165.682 94.3333 166.273 97.9091 166.273C101.909 166.273 105.455 165.576 108.545 164.182C111.636 162.788 114.061 160.848 115.818 158.364C117.576 155.879 118.455 153 118.455 149.727C118.455 146.303 117.606 143.288 115.909 140.682C114.212 138.045 111.727 135.985 108.455 134.5C105.182 133.015 101.182 132.273 96.4545 132.273H89V122.273H96.4545C100.152 122.273 103.394 121.606 106.182 120.273C109 118.939 111.197 117.061 112.773 114.636C114.379 112.212 115.182 109.364 115.182 106.091C115.182 102.939 114.485 100.197 113.091 97.8636C111.697 95.5303 109.727 93.7121 107.182 92.4091C104.667 91.1061 101.697 90.4545 98.2727 90.4545C95.0606 90.4545 92.0303 91.0455 89.1818 92.2273C86.3636 93.3788 84.0606 95.0606 82.2727 97.2727C80.4848 99.4545 79.5152 102.091 79.3636 105.182H68.4545C68.6364 100.303 70.1061 96.0303 72.8636 92.3636C75.6212 88.6667 79.2273 85.7879 83.6818 83.7273C88.1667 81.6667 93.0909 80.6364 98.4545 80.6364C104.212 80.6364 109.152 81.803 113.273 84.1364C117.394 86.4394 120.561 89.4848 122.773 93.2727C124.985 97.0606 126.091 101.152 126.091 105.545C126.091 110.788 124.712 115.258 121.955 118.955C119.227 122.652 115.515 125.212 110.818 126.636V127.364C116.697 128.333 121.288 130.833 124.591 134.864C127.894 138.864 129.545 143.818 129.545 149.727C129.545 154.788 128.167 159.333 125.409 163.364C122.682 167.364 118.955 170.515 114.227 172.818C109.5 175.121 104.121 176.273 98.0909 176.273ZM180.864 81.9091V175H169.591V93.7273H169.045L146.318 108.818V97.3636L169.591 81.9091H180.864Z" fill="#A6E39C"/>
</g>
</g>
</g>
</g>
<defs>
<filter id="filter0_d_20_2" x="41" y="46" width="173" height="173" filterUnits="userSpaceOnUse" color-interpolation-filters="sRGB">
<feFlood flood-opacity="0" result="BackgroundImageFix"/>
<feColorMatrix in="SourceAlpha" type="matrix" values="0 0 0 0 0 0 0 0 0 0 0 0 0 0 0 0 0 0 127 0" result="hardAlpha"/>
<feOffset dy="4"/>
<feGaussianBlur stdDeviation="2"/>
<feComposite in2="hardAlpha" operator="out"/>
<feColorMatrix type="matrix" values="0 0 0 0 0 0 0 0 0 0 0 0 0 0 0 0 0 0 0.25 0"/>
<feBlend mode="normal" in2="BackgroundImageFix" result="effect1_dropShadow_20_2"/>
<feBlend mode="normal" in="SourceGraphic" in2="effect1_dropShadow_20_2" result="shape"/>
</filter>
<filter id="filter1_f_20_2" x="41" y="42" width="173" height="173" filterUnits="userSpaceOnUse" color-interpolation-filters="sRGB">
<feFlood flood-opacity="0" result="BackgroundImageFix"/>
<feBlend mode="normal" in="SourceGraphic" in2="BackgroundImageFix" result="shape"/>
<feGaussianBlur stdDeviation="2" result="effect1_foregroundBlur_20_2"/>
</filter>
<filter id="filter2_i_20_2" x="66.4545" y="80.6364" width="114.409" height="99.6364" filterUnits="userSpaceOnUse" color-interpolation-filters="sRGB">
<feFlood flood-opacity="0" result="BackgroundImageFix"/>
<feBlend mode="normal" in="SourceGraphic" in2="BackgroundImageFix" result="shape"/>
<feColorMatrix in="SourceAlpha" type="matrix" values="0 0 0 0 0 0 0 0 0 0 0 0 0 0 0 0 0 0 127 0" result="hardAlpha"/>
<feOffset dy="4"/>
<feGaussianBlur stdDeviation="2"/>
<feComposite in2="hardAlpha" operator="arithmetic" k2="-1" k3="1"/>
<feColorMatrix type="matrix" values="0 0 0 0 0 0 0 0 0 0 0 0 0 0 0 0 0 0 0.25 0"/>
<feBlend mode="normal" in2="shape" result="effect1_innerShadow_20_2"/>
</filter>
<filter id="filter3_f_20_2" x="62.4545" y="76.6364" width="122.409" height="103.636" filterUnits="userSpaceOnUse" color-interpolation-filters="sRGB">
<feFlood flood-opacity="0" result="BackgroundImageFix"/>
<feBlend mode="normal" in="SourceGraphic" in2="BackgroundImageFix" result="shape"/>
<feGaussianBlur stdDeviation="2" result="effect1_foregroundBlur_20_2"/>
</filter>
<clipPath id="clip0_20_2">
<rect width="256" height="256" fill="white"/>
</clipPath>
</defs>
</svg>
