<svg width="512" height="512" viewBox="0 0 512 512" fill="none" xmlns="http://www.w3.org/2000/svg">
<g clip-path="url(#clip0_5_116)">
<rect width="512" height="512" rx="125" fill="#4A5CFF"/>
<path fill-rule="evenodd" clip-rule="evenodd" d="M86.2843 227.706C70.6633 243.327 70.6633 268.653 86.2843 284.274L227.706 425.696C243.327 441.316 268.653 441.316 284.274 425.696L425.696 284.274C441.316 268.653 441.316 243.327 425.696 227.706L284.274 86.2843C268.653 70.6633 243.327 70.6633 227.706 86.2843L86.2843 227.706ZM198.919 241.345C191.108 249.156 191.108 261.819 198.919 269.63L241.345 312.056C249.156 319.866 261.819 319.866 269.63 312.056L312.056 269.63C319.866 261.819 319.866 249.156 312.056 241.345L269.63 198.919C261.819 191.108 249.156 191.108 241.345 198.919L198.919 241.345Z" fill="white"/>
</g>
<defs>
<clipPath id="clip0_5_116">
<rect width="512" height="512" fill="white"/>
</clipPath>
</defs>
</svg>
