<svg width="256" height="256" viewBox="0 0 256 256" fill="none" xmlns="http://www.w3.org/2000/svg">
<g clip-path="url(#clip0_15_46)">
<rect width="256" height="256" rx="35" fill="url(#paint0_linear_15_46)"/>
<g filter="url(#filter0_d_15_46)">
<mask id="mask0_15_46" style="mask-type:alpha" maskUnits="userSpaceOnUse" x="30" y="30" width="195" height="195">
<path fill-rule="evenodd" clip-rule="evenodd" d="M39.2132 106.388C27.4975 118.104 27.4975 137.099 39.2132 148.815L106.388 215.99C118.104 227.706 137.099 227.706 148.815 215.99L215.99 148.815C227.706 137.099 227.706 118.104 215.99 106.388L148.815 39.2132C137.099 27.4975 118.104 27.4975 106.388 39.2132L39.2132 106.388ZM103.071 120.749C99.1658 124.654 99.1658 130.986 103.071 134.891L120.749 152.569C124.654 156.474 130.986 156.474 134.891 152.569L152.569 134.891C156.474 130.986 156.474 124.654 152.569 120.749L134.891 103.071C130.986 99.1658 124.654 99.1658 120.749 103.071L103.071 120.749Z" fill="white"/>
</mask>
<g mask="url(#mask0_15_46)">
<g filter="url(#filter1_f_15_46)">
<path fill-rule="evenodd" clip-rule="evenodd" d="M39.2132 106.388C27.4975 118.104 27.4975 137.099 39.2132 148.815L106.388 215.99C118.104 227.706 137.099 227.706 148.815 215.99L215.99 148.815C227.706 137.099 227.706 118.104 215.99 106.388L148.815 39.2132C137.099 27.4975 118.104 27.4975 106.388 39.2132L39.2132 106.388ZM103.071 120.749C99.1658 124.654 99.1658 130.986 103.071 134.891L120.749 152.569C124.654 156.474 130.986 156.474 134.891 152.569L152.569 134.891C156.474 130.986 156.474 124.654 152.569 120.749L134.891 103.071C130.986 99.1658 124.654 99.1658 120.749 103.071L103.071 120.749Z" fill="white"/>
</g>
</g>
</g>
</g>
<defs>
<filter id="filter0_d_15_46" x="26.4264" y="30.4264" width="202.35" height="202.35" filterUnits="userSpaceOnUse" color-interpolation-filters="sRGB">
<feFlood flood-opacity="0" result="BackgroundImageFix"/>
<feColorMatrix in="SourceAlpha" type="matrix" values="0 0 0 0 0 0 0 0 0 0 0 0 0 0 0 0 0 0 127 0" result="hardAlpha"/>
<feOffset dy="4"/>
<feGaussianBlur stdDeviation="2"/>
<feComposite in2="hardAlpha" operator="out"/>
<feColorMatrix type="matrix" values="0 0 0 0 0 0 0 0 0 0 0 0 0 0 0 0 0 0 0.25 0"/>
<feBlend mode="normal" in2="BackgroundImageFix" result="effect1_dropShadow_15_46"/>
<feBlend mode="normal" in="SourceGraphic" in2="effect1_dropShadow_15_46" result="shape"/>
</filter>
<filter id="filter1_f_15_46" x="26.4264" y="26.4264" width="202.35" height="202.35" filterUnits="userSpaceOnUse" color-interpolation-filters="sRGB">
<feFlood flood-opacity="0" result="BackgroundImageFix"/>
<feBlend mode="normal" in="SourceGraphic" in2="BackgroundImageFix" result="shape"/>
<feGaussianBlur stdDeviation="2" result="effect1_foregroundBlur_15_46"/>
</filter>
<linearGradient id="paint0_linear_15_46" x1="128" y1="0" x2="128" y2="256" gradientUnits="userSpaceOnUse">
<stop stop-color="#7CD3F8"/>
<stop offset="1" stop-color="#E496CF"/>
</linearGradient>
<clipPath id="clip0_15_46">
<rect width="256" height="256" fill="white"/>
</clipPath>
</defs>
</svg>
