<svg width="512" height="512" viewBox="0 0 512 512" fill="none" xmlns="http://www.w3.org/2000/svg">
<g clip-path="url(#clip0_5_55)">
<rect width="512" height="512" rx="125" fill="#FFD990"/>
<mask id="mask0_5_55" style="mask-type:alpha" maskUnits="userSpaceOnUse" x="91" y="91" width="330" height="330">
<rect x="91" y="91" width="330" height="330" rx="40" fill="white"/>
</mask>
<g mask="url(#mask0_5_55)">
<path fill-rule="evenodd" clip-rule="evenodd" d="M156 95.5C156 105.165 148.165 113 138.5 113C128.835 113 121 105.165 121 95.5C121 94.3651 121.108 93.2554 121.314 92.1806C124.416 91.4094 127.66 91 131 91H155.416C155.797 92.4359 156 93.9442 156 95.5ZM168.584 91H155.416C153.43 83.5156 146.609 78 138.5 78C129.97 78 122.865 84.103 121.314 92.1806C103.903 96.5107 91 112.249 91 131V381C91 403.091 108.909 421 131 421H381C403.091 421 421 403.091 421 381V131C421 112.249 408.097 96.5107 390.686 92.1806C389.135 84.103 382.03 78 373.5 78C365.391 78 358.57 83.5156 356.584 91H343.416C341.43 83.5156 334.609 78 326.5 78C318.391 78 311.57 83.5156 309.584 91H296.416C294.43 83.5156 287.609 78 279.5 78C271.391 78 264.57 83.5156 262.584 91H249.416C247.43 83.5156 240.609 78 232.5 78C224.391 78 217.57 83.5156 215.584 91H202.416C200.43 83.5156 193.609 78 185.5 78C177.391 78 170.57 83.5156 168.584 91ZM168.584 91H202.416C202.797 92.4359 203 93.9442 203 95.5C203 105.165 195.165 113 185.5 113C175.835 113 168 105.165 168 95.5C168 93.9442 168.203 92.4359 168.584 91ZM215.584 91C215.203 92.4359 215 93.9442 215 95.5C215 105.165 222.835 113 232.5 113C242.165 113 250 105.165 250 95.5C250 93.9442 249.797 92.4359 249.416 91H215.584ZM262.584 91C262.203 92.4359 262 93.9442 262 95.5C262 105.165 269.835 113 279.5 113C289.165 113 297 105.165 297 95.5C297 93.9442 296.797 92.4359 296.416 91H262.584ZM309.584 91C309.203 92.4359 309 93.9442 309 95.5C309 105.165 316.835 113 326.5 113C336.165 113 344 105.165 344 95.5C344 93.9442 343.797 92.4359 343.416 91H309.584ZM356.584 91C356.203 92.4359 356 93.9442 356 95.5C356 105.165 363.835 113 373.5 113C383.165 113 391 105.165 391 95.5C391 94.3651 390.892 93.2554 390.686 92.1806C387.584 91.4094 384.34 91 381 91H356.584Z" fill="white"/>
<rect x="91" y="129" width="330" height="10" fill="#E9E9E9"/>
<rect x="91" y="166" width="330" height="10" fill="#E9E9E9"/>
<rect x="91" y="203" width="330" height="10" fill="#E9E9E9"/>
<rect x="91" y="240" width="330" height="10" fill="#E9E9E9"/>
<rect x="91" y="277" width="330" height="10" fill="#E9E9E9"/>
<rect x="91" y="314" width="330" height="10" fill="#E9E9E9"/>
<rect x="91" y="351" width="330" height="10" fill="#E9E9E9"/>
<rect x="91" y="388" width="330" height="10" fill="#E9E9E9"/>
</g>
</g>
<defs>
<clipPath id="clip0_5_55">
<rect width="512" height="512" fill="white"/>
</clipPath>
</defs>
</svg>
