<svg width="256" height="256" viewBox="0 0 256 256" fill="none" xmlns="http://www.w3.org/2000/svg">
<g clip-path="url(#clip0_20_21)">
<rect width="256" height="256" rx="35" fill="#FFD991"/>
<g filter="url(#filter0_d_20_21)">
<mask id="mask0_20_21" style="mask-type:alpha" maskUnits="userSpaceOnUse" x="36" y="35" width="185" height="185">
<rect x="36" y="35" width="185" height="185" rx="30" fill="white"/>
</mask>
<g mask="url(#mask0_20_21)">
<path fill-rule="evenodd" clip-rule="evenodd" d="M75.2424 40.0454C75.2424 44.6897 71.4775 48.4545 66.8333 48.4545C62.1891 48.4545 58.4242 44.6897 58.4242 40.0454C58.4242 38.4442 58.8718 36.9475 59.6486 35.6736C61.6958 35.2323 63.8208 35 66 35H73.5612C74.6169 36.4054 75.2424 38.1524 75.2424 40.0454ZM84.7721 35H73.5612C72.0271 32.9575 69.5845 31.6364 66.8333 31.6364C63.7903 31.6364 61.1249 33.2527 59.6486 35.6736C46.1306 38.5875 36 50.6107 36 65V190C36 206.569 49.4315 220 66 220H191C207.569 220 221 206.569 221 190V65C221 50.6107 210.869 38.5875 197.351 35.6736C195.875 33.2527 193.21 31.6364 190.167 31.6364C187.416 31.6364 184.973 32.9575 183.439 35H172.228C170.694 32.9575 168.251 31.6364 165.5 31.6364C162.749 31.6364 160.306 32.9575 158.772 35H147.561C146.027 32.9575 143.584 31.6364 140.833 31.6364C138.082 31.6364 135.64 32.9575 134.105 35H122.895C121.36 32.9575 118.918 31.6364 116.167 31.6364C113.416 31.6364 110.973 32.9575 109.439 35H98.2279C96.6937 32.9575 94.2511 31.6364 91.5 31.6364C88.7488 31.6364 86.3063 32.9575 84.7721 35ZM84.7721 35H98.2279C99.2835 36.4054 99.9091 38.1524 99.9091 40.0454C99.9091 44.6897 96.1442 48.4545 91.5 48.4545C86.8558 48.4545 83.0909 44.6897 83.0909 40.0454C83.0909 38.1524 83.7164 36.4054 84.7721 35ZM109.439 35C108.383 36.4054 107.758 38.1524 107.758 40.0454C107.758 44.6897 111.522 48.4545 116.167 48.4545C120.811 48.4545 124.576 44.6897 124.576 40.0454C124.576 38.1524 123.95 36.4054 122.895 35H109.439ZM134.105 35C133.05 36.4054 132.424 38.1524 132.424 40.0454C132.424 44.6897 136.189 48.4545 140.833 48.4545C145.478 48.4545 149.242 44.6897 149.242 40.0454C149.242 38.1524 148.617 36.4054 147.561 35H134.105ZM158.772 35C157.716 36.4054 157.091 38.1524 157.091 40.0454C157.091 44.6897 160.856 48.4545 165.5 48.4545C170.144 48.4545 173.909 44.6897 173.909 40.0454C173.909 38.1524 173.284 36.4054 172.228 35H158.772ZM183.439 35C182.383 36.4054 181.758 38.1524 181.758 40.0454C181.758 44.6897 185.522 48.4545 190.167 48.4545C194.811 48.4545 198.576 44.6897 198.576 40.0454C198.576 38.4442 198.128 36.9475 197.351 35.6736C195.304 35.2323 193.179 35 191 35H183.439Z" fill="white"/>
<rect x="36" y="65.2727" width="185" height="3.36364" fill="#E7E7E7"/>
<rect x="36" y="88.8182" width="185" height="3.36364" fill="#E7E7E7"/>
<rect x="36" y="112.364" width="185" height="3.36364" fill="#E7E7E7"/>
<rect x="36" y="135.909" width="185" height="3.36364" fill="#E7E7E7"/>
<rect x="36" y="159.455" width="185" height="3.36364" fill="#E7E7E7"/>
<rect x="36" y="183" width="185" height="3.36364" fill="#E7E7E7"/>
<rect x="36" y="206.545" width="185" height="3.36364" fill="#E7E7E7"/>
</g>
</g>
</g>
<defs>
<filter id="filter0_d_20_21" x="32" y="35" width="193" height="193" filterUnits="userSpaceOnUse" color-interpolation-filters="sRGB">
<feFlood flood-opacity="0" result="BackgroundImageFix"/>
<feColorMatrix in="SourceAlpha" type="matrix" values="0 0 0 0 0 0 0 0 0 0 0 0 0 0 0 0 0 0 127 0" result="hardAlpha"/>
<feOffset dy="4"/>
<feGaussianBlur stdDeviation="2"/>
<feComposite in2="hardAlpha" operator="out"/>
<feColorMatrix type="matrix" values="0 0 0 0 0 0 0 0 0 0 0 0 0 0 0 0 0 0 0.25 0"/>
<feBlend mode="normal" in2="BackgroundImageFix" result="effect1_dropShadow_20_21"/>
<feBlend mode="normal" in="SourceGraphic" in2="effect1_dropShadow_20_21" result="shape"/>
</filter>
<clipPath id="clip0_20_21">
<rect width="256" height="256" fill="white"/>
</clipPath>
</defs>
</svg>
