<svg width="512" height="512" viewBox="0 0 512 512" fill="none" xmlns="http://www.w3.org/2000/svg">
<rect y="69.9408" width="512" height="396.62" rx="40" fill="#FFCE70"/>
<rect y="31" width="235.087" height="435.561" rx="40" fill="#FFCE70"/>
<circle cx="256" cy="198" r="40" fill="#C9983B"/>
<rect x="156" y="249" width="200" height="40" rx="20" fill="#C9983B"/>
<rect x="227.299" y="349.122" width="152.908" height="40" rx="20" transform="rotate(-45 227.299 349.122)" fill="#C9983B"/>
<rect x="176.284" y="241" width="152.367" height="40" rx="20" transform="rotate(45 176.284 241)" fill="#C9983B"/>
<rect x="219" y="282" width="75" height="42" fill="#C9983B"/>
<circle cx="198.068" cy="293.544" r="18.5438" fill="#9A752F"/>
<rect x="151.709" y="317.187" width="92.719" height="18.5438" rx="9.2719" fill="#9A752F"/>
<rect x="184.762" y="363.603" width="70.8874" height="18.5438" rx="9.2719" transform="rotate(-45 184.762 363.603)" fill="#9A752F"/>
<rect x="161.112" y="313.478" width="70.6367" height="18.5438" rx="9.2719" transform="rotate(45 161.112 313.478)" fill="#9A752F"/>
<rect x="180.915" y="332.486" width="34.7696" height="19.471" fill="#9A752F"/>
<circle cx="314.068" cy="293.544" r="18.5438" fill="#9A752F"/>
<rect x="267.709" y="317.187" width="92.719" height="18.5438" rx="9.2719" fill="#9A752F"/>
<rect x="300.762" y="363.603" width="70.8874" height="18.5438" rx="9.2719" transform="rotate(-45 300.762 363.603)" fill="#9A752F"/>
<rect x="277.112" y="313.478" width="70.6367" height="18.5438" rx="9.2719" transform="rotate(45 277.112 313.478)" fill="#9A752F"/>
<rect x="296.915" y="332.486" width="34.7696" height="19.471" fill="#9A752F"/>
</svg>
