<svg width="256" height="256" viewBox="0 0 256 256" fill="none" xmlns="http://www.w3.org/2000/svg">
<g clip-path="url(#clip0_32_2)">
<rect width="256" height="256" rx="35" fill="#3D3D3D"/>
<g filter="url(#filter0_d_32_2)">
<mask id="mask0_32_2" style="mask-type:alpha" maskUnits="userSpaceOnUse" x="43" y="67" width="170" height="122">
<rect x="54.7326" y="62" width="100" height="25" rx="12.5" transform="rotate(40 54.7326 62)" fill="white"/>
<rect x="39" y="174.494" width="100" height="25" rx="12.5" transform="rotate(-40 39 174.494)" fill="white"/>
<rect x="188" y="67" width="25" height="122" rx="12.5" fill="white"/>
</mask>
<g mask="url(#mask0_32_2)">
<g filter="url(#filter1_f_32_2)">
<rect x="54.7326" y="62" width="100" height="25" rx="12.5" transform="rotate(40 54.7326 62)" fill="white"/>
<rect x="39" y="174.494" width="100" height="25" rx="12.5" transform="rotate(-40 39 174.494)" fill="white"/>
<rect x="188" y="67" width="25" height="122" rx="12.5" fill="white"/>
</g>
</g>
</g>
</g>
<defs>
<filter id="filter0_d_32_2" x="39.773" y="67" width="177.227" height="130" filterUnits="userSpaceOnUse" color-interpolation-filters="sRGB">
<feFlood flood-opacity="0" result="BackgroundImageFix"/>
<feColorMatrix in="SourceAlpha" type="matrix" values="0 0 0 0 0 0 0 0 0 0 0 0 0 0 0 0 0 0 127 0" result="hardAlpha"/>
<feOffset dy="4"/>
<feGaussianBlur stdDeviation="2"/>
<feComposite in2="hardAlpha" operator="out"/>
<feColorMatrix type="matrix" values="0 0 0 0 0 0 0 0 0 0 0 0 0 0 0 0 0 0 0.25 0"/>
<feBlend mode="normal" in2="BackgroundImageFix" result="effect1_dropShadow_32_2"/>
<feBlend mode="normal" in="SourceGraphic" in2="effect1_dropShadow_32_2" result="shape"/>
</filter>
<filter id="filter1_f_32_2" x="39.773" y="63" width="177.227" height="130" filterUnits="userSpaceOnUse" color-interpolation-filters="sRGB">
<feFlood flood-opacity="0" result="BackgroundImageFix"/>
<feBlend mode="normal" in="SourceGraphic" in2="BackgroundImageFix" result="shape"/>
<feGaussianBlur stdDeviation="2" result="effect1_foregroundBlur_32_2"/>
</filter>
<clipPath id="clip0_32_2">
<rect width="256" height="256" fill="white"/>
</clipPath>
</defs>
</svg>
