<svg width="512" height="512" viewBox="0 0 512 512" fill="none" xmlns="http://www.w3.org/2000/svg">
<g clip-path="url(#clip0_60_2)">
<rect width="512" height="512" rx="140" fill="#3B3B3B"/>
<path d="M148.405 163.04H171.189L233.653 332H210.229L195.637 291.296H123.957L109.109 332H85.685L148.405 163.04ZM130.997 271.584H188.725L160.053 189.92H159.669L130.997 271.584ZM184.629 151.52C180.874 151.52 177.632 150.155 174.901 147.424C172.256 144.693 170.933 141.493 170.933 137.824C170.933 134.155 172.256 130.955 174.901 128.224C177.632 125.408 180.874 124 184.629 124C188.298 124 191.498 125.365 194.229 128.096C196.96 130.827 198.325 134.069 198.325 137.824C198.325 141.579 196.96 144.821 194.229 147.552C191.498 150.197 188.298 151.52 184.629 151.52ZM134.709 151.52C130.954 151.52 127.754 150.155 125.109 147.424C122.464 144.693 121.141 141.493 121.141 137.824C121.141 134.155 122.464 130.955 125.109 128.224C127.754 125.408 130.954 124 134.709 124C138.464 124 141.664 125.365 144.309 128.096C147.04 130.827 148.405 134.069 148.405 137.824C148.405 141.579 147.04 144.821 144.309 147.552C141.664 150.197 138.464 151.52 134.709 151.52ZM285.241 335.072C277.988 335.072 271.332 333.792 265.273 331.232C259.3 328.587 254.521 324.619 250.937 319.328C247.438 314.037 245.689 307.467 245.689 299.616C245.689 293.045 247.524 287.243 251.193 282.208C254.948 277.173 259.94 273.205 266.169 270.304C272.484 267.403 279.481 265.952 287.161 265.952C293.049 265.952 298.084 266.592 302.265 267.872C306.446 269.067 309.817 270.475 312.377 272.096C314.937 273.632 316.601 274.827 317.369 275.68V270.816C317.369 265.099 316.516 260.32 314.809 256.48C313.102 252.64 310.798 249.568 307.897 247.264C305.081 244.875 301.924 243.168 298.425 242.144C295.012 241.12 291.556 240.608 288.057 240.608C281.23 240.608 275.172 241.845 269.881 244.32C264.59 246.795 260.793 249.184 258.489 251.488L247.737 235.872C250.638 233.312 255.758 230.667 263.097 227.936C270.436 225.205 279.225 223.84 289.465 223.84C296.718 223.84 303.033 225.077 308.409 227.552C313.785 229.941 318.18 232.971 321.593 236.64C325.006 240.309 327.438 244.064 328.889 247.904C330.51 244.32 333.198 240.693 336.953 237.024C340.708 233.269 345.273 230.155 350.649 227.68C356.025 225.12 361.828 223.84 368.057 223.84C377.785 223.84 386.318 225.888 393.657 229.984C400.996 234.08 406.67 240.224 410.681 248.416C414.777 256.608 416.825 266.976 416.825 279.52C416.825 280.288 416.782 280.928 416.697 281.44C416.612 281.867 416.569 282.421 416.569 283.104H338.873C338.873 290.784 340.196 297.227 342.841 302.432C345.486 307.552 349.113 311.392 353.721 313.952C358.329 316.427 363.577 317.664 369.465 317.664C374.756 317.664 379.492 316.64 383.673 314.592C387.94 312.459 391.524 310.027 394.425 307.296C397.412 304.565 399.545 302.304 400.825 300.512L414.393 313.056C411.748 316.128 408.249 319.371 403.897 322.784C399.63 326.197 394.468 329.099 388.409 331.488C382.436 333.877 375.652 335.072 368.057 335.072C361.913 335.072 356.068 334.048 350.521 332C344.974 330.037 340.11 327.392 335.929 324.064C331.833 320.736 328.676 317.109 326.457 313.184C325.348 315.744 322.958 318.773 319.289 322.272C315.62 325.685 310.884 328.672 305.081 331.232C299.364 333.792 292.75 335.072 285.241 335.072ZM287.929 320.48C292.964 320.565 297.401 319.541 301.241 317.408C305.166 315.189 308.238 312.416 310.457 309.088C312.761 305.675 313.913 302.219 313.913 298.72C313.913 292.832 311.609 288.139 307.001 284.64C302.393 281.056 296.718 279.264 289.977 279.264C286.052 279.264 282.169 280.075 278.329 281.696C274.489 283.232 271.289 285.536 268.729 288.608C266.254 291.68 265.017 295.392 265.017 299.744C265.017 305.632 267.193 310.539 271.545 314.464C275.982 318.389 281.444 320.395 287.929 320.48ZM339.897 269.92H395.961C395.79 267.787 395.321 265.013 394.553 261.6C393.87 258.101 392.59 254.603 390.713 251.104C388.836 247.605 386.148 244.661 382.649 242.272C379.236 239.883 374.713 238.688 369.081 238.688C360.548 238.688 353.721 241.589 348.601 247.392C343.566 253.109 340.665 260.619 339.897 269.92Z" fill="white"/>
</g>
<defs>
<clipPath id="clip0_60_2">
<rect width="512" height="512" fill="white"/>
</clipPath>
</defs>
</svg>
