<svg width="512" height="512" viewBox="0 0 512 512" fill="none" xmlns="http://www.w3.org/2000/svg">
<g clip-path="url(#clip0_58_115)">
<rect width="512" height="512" rx="140" fill="#13AAFF"/>
<mask id="mask0_58_115" style="mask-type:alpha" maskUnits="userSpaceOnUse" x="101" y="96" width="320" height="320">
<rect x="101" y="96" width="320" height="320" rx="40" fill="white"/>
</mask>
<g mask="url(#mask0_58_115)">
<path fill-rule="evenodd" clip-rule="evenodd" d="M141 96C118.909 96 101 113.909 101 136V376C101 398.091 118.909 416 141 416H381C403.091 416 421 398.091 421 376V136C421 113.909 403.091 96 381 96H141ZM148.5 158C144.358 158 141 161.358 141 165.5C141 169.642 144.358 173 148.5 173H373.5C377.642 173 381 169.642 381 165.5C381 161.358 377.642 158 373.5 158H148.5ZM141 210.5C141 206.358 144.358 203 148.5 203H373.5C377.642 203 381 206.358 381 210.5C381 214.642 377.642 218 373.5 218H148.5C144.358 218 141 214.642 141 210.5ZM148.5 248C144.358 248 141 251.358 141 255.5C141 259.642 144.358 263 148.5 263H373.5C377.642 263 381 259.642 381 255.5C381 251.358 377.642 248 373.5 248H148.5ZM141 300.5C141 296.358 144.358 293 148.5 293H373.5C377.642 293 381 296.358 381 300.5C381 304.642 377.642 308 373.5 308H148.5C144.358 308 141 304.642 141 300.5ZM148.5 338C144.358 338 141 341.358 141 345.5C141 349.642 144.358 353 148.5 353H373.5C377.642 353 381 349.642 381 345.5C381 341.358 377.642 338 373.5 338H148.5Z" fill="white"/>
</g>
</g>
<defs>
<clipPath id="clip0_58_115">
<rect width="512" height="512" fill="white"/>
</clipPath>
</defs>
</svg>
