<svg width="512" height="512" viewBox="0 0 512 512" fill="none" xmlns="http://www.w3.org/2000/svg">
<g clip-path="url(#clip0_60_6)">
<rect width="512" height="512" rx="140" fill="#65AEC5"/>
<mask id="mask0_60_6" style="mask-type:alpha" maskUnits="userSpaceOnUse" x="116" y="96" width="280" height="320">
<rect x="116" y="96" width="280" height="320" rx="40" fill="white"/>
</mask>
<g mask="url(#mask0_60_6)">
<path fill-rule="evenodd" clip-rule="evenodd" d="M156 96C133.909 96 116 113.909 116 136V376C116 398.091 133.909 416 156 416H356C378.091 416 396 398.091 396 376V136C396 113.909 378.091 96 356 96H156ZM158.5 158C154.358 158 151 161.358 151 165.5C151 169.642 154.358 173 158.5 173H353.5C357.642 173 361 169.642 361 165.5C361 161.358 357.642 158 353.5 158H158.5ZM151 210.5C151 206.358 154.358 203 158.5 203H353.5C357.642 203 361 206.358 361 210.5C361 214.642 357.642 218 353.5 218H158.5C154.358 218 151 214.642 151 210.5ZM158.5 248C154.358 248 151 251.358 151 255.5C151 259.642 154.358 263 158.5 263H353.5C357.642 263 361 259.642 361 255.5C361 251.358 357.642 248 353.5 248H158.5ZM151 300.5C151 296.358 154.358 293 158.5 293H353.5C357.642 293 361 296.358 361 300.5C361 304.642 357.642 308 353.5 308H158.5C154.358 308 151 304.642 151 300.5ZM158.5 338C154.358 338 151 341.358 151 345.5C151 349.642 154.358 353 158.5 353H353.5C357.642 353 361 349.642 361 345.5C361 341.358 357.642 338 353.5 338H158.5Z" fill="white"/>
</g>
<ellipse cx="242.376" cy="228.34" rx="82.3757" ry="82.3396" fill="#65AEC5"/>
<path d="M283.531 295.537L308.087 270.992L365.664 328.543C372.445 335.321 372.445 346.31 365.664 353.088V353.088C358.883 359.866 347.889 359.866 341.108 353.088L283.531 295.537Z" fill="#65AEC5"/>
<ellipse cx="242.376" cy="228.34" rx="54.9171" ry="54.893" fill="#65AEC5"/>
<circle cx="243" cy="229" r="75" fill="white"/>
<path d="M283 287.678L300.678 270L362.55 331.872C367.431 336.753 367.431 344.668 362.55 349.55V349.55C357.668 354.431 349.753 354.431 344.872 349.55L283 287.678Z" fill="white"/>
<circle cx="243" cy="229" r="50" fill="#65AEC5"/>
</g>
<defs>
<clipPath id="clip0_60_6">
<rect width="512" height="512" fill="white"/>
</clipPath>
</defs>
</svg>
