<svg width="512" height="512" viewBox="0 0 512 512" fill="none" xmlns="http://www.w3.org/2000/svg">
<g clip-path="url(#clip0_54_9)">
<rect width="512" height="512" rx="140" fill="#FFD990"/>
<mask id="mask0_54_9" style="mask-type:alpha" maskUnits="userSpaceOnUse" x="96" y="96" width="320" height="320">
<rect x="96" y="96" width="320" height="320" rx="40" fill="white"/>
</mask>
<g mask="url(#mask0_54_9)">
<path fill-rule="evenodd" clip-rule="evenodd" d="M142.061 117.333C151.433 117.333 159.03 109.736 159.03 100.364C159.03 98.855 158.833 97.3924 158.464 96H171.233C170.864 97.3924 170.667 98.855 170.667 100.364C170.667 109.736 178.264 117.333 187.636 117.333C197.008 117.333 204.606 109.736 204.606 100.364C204.606 98.855 204.409 97.3924 204.04 96H216.809C216.439 97.3924 216.242 98.855 216.242 100.364C216.242 109.736 223.84 117.333 233.212 117.333C242.584 117.333 250.182 109.736 250.182 100.364C250.182 98.855 249.985 97.3924 249.616 96H262.384C262.015 97.3924 261.818 98.855 261.818 100.364C261.818 109.736 269.416 117.333 278.788 117.333C288.16 117.333 295.758 109.736 295.758 100.364C295.758 98.855 295.561 97.3924 295.191 96H307.96C307.591 97.3924 307.394 98.855 307.394 100.364C307.394 109.736 314.992 117.333 324.364 117.333C333.736 117.333 341.333 109.736 341.333 100.364C341.333 98.855 341.136 97.3924 340.767 96H353.536C353.167 97.3924 352.97 98.855 352.97 100.364C352.97 109.736 360.567 117.333 369.939 117.333C379.311 117.333 386.909 109.736 386.909 100.364C386.909 99.3651 386.823 98.3866 386.657 97.4354C403.575 102.1 416 117.599 416 136V376C416 398.091 398.091 416 376 416H136C113.909 416 96 398.091 96 376V136C96 117.599 108.425 102.1 125.343 97.4354C125.177 98.3866 125.091 99.3651 125.091 100.364C125.091 109.736 132.689 117.333 142.061 117.333ZM386.657 97.4354C385.27 89.4588 378.313 83.394 369.939 83.394C362.076 83.394 355.462 88.7424 353.536 96H376C379.691 96 383.264 96.4998 386.657 97.4354ZM340.767 96C338.841 88.7424 332.227 83.394 324.364 83.394C316.5 83.394 309.886 88.7424 307.96 96H340.767ZM295.191 96C293.266 88.7424 286.651 83.394 278.788 83.394C270.924 83.394 264.31 88.7424 262.384 96H295.191ZM249.616 96C247.69 88.7424 241.076 83.394 233.212 83.394C225.349 83.394 218.734 88.7424 216.809 96H249.616ZM204.04 96H171.233C173.159 88.7424 179.773 83.394 187.636 83.394C195.5 83.394 202.114 88.7424 204.04 96ZM136 96C132.309 96 128.736 96.4998 125.343 97.4354C126.73 89.4588 133.687 83.3939 142.061 83.3939C149.924 83.3939 156.538 88.7424 158.464 96H136ZM143.5 158C139.358 158 136 161.358 136 165.5C136 169.642 139.358 173 143.5 173H368.5C372.642 173 376 169.642 376 165.5C376 161.358 372.642 158 368.5 158H143.5ZM136 210.5C136 206.358 139.358 203 143.5 203H368.5C372.642 203 376 206.358 376 210.5C376 214.642 372.642 218 368.5 218H143.5C139.358 218 136 214.642 136 210.5ZM143.5 248C139.358 248 136 251.358 136 255.5C136 259.642 139.358 263 143.5 263H368.5C372.642 263 376 259.642 376 255.5C376 251.358 372.642 248 368.5 248H143.5ZM136 300.5C136 296.358 139.358 293 143.5 293H368.5C372.642 293 376 296.358 376 300.5C376 304.642 372.642 308 368.5 308H143.5C139.358 308 136 304.642 136 300.5ZM143.5 338C139.358 338 136 341.358 136 345.5C136 349.642 139.358 353 143.5 353H368.5C372.642 353 376 349.642 376 345.5C376 341.358 372.642 338 368.5 338H143.5Z" fill="white"/>
</g>
</g>
<defs>
<clipPath id="clip0_54_9">
<rect width="512" height="512" fill="white"/>
</clipPath>
</defs>
</svg>
