<svg width="512" height="512" viewBox="0 0 512 512" fill="none" xmlns="http://www.w3.org/2000/svg">
<g clip-path="url(#clip0_4_130)">
<rect width="512" height="512" rx="140" fill="#FFB5F8"/>
<path fill-rule="evenodd" clip-rule="evenodd" d="M112.252 132.857C91.1261 139.316 79.236 161.678 85.6949 182.804L155.864 412.317C162.323 433.443 184.685 445.334 205.811 438.875L399.322 379.712C420.448 373.253 432.338 350.891 425.88 329.765L355.71 100.252C349.251 79.1261 326.889 67.236 305.763 73.6949L112.252 132.857ZM157.341 150.566C133.574 157.832 120.198 182.989 127.464 206.756L164.441 327.701C171.707 351.468 196.864 364.844 220.631 357.578L341.575 320.601C365.342 313.335 378.719 288.178 371.452 264.411L334.476 143.466C327.21 119.7 302.052 106.323 278.286 113.589L157.341 150.566Z" fill="white"/>
<path fill-rule="evenodd" clip-rule="evenodd" d="M205.445 180.147C184.319 186.606 172.428 208.968 178.887 230.094L194.022 279.597C200.481 300.723 222.843 312.613 243.969 306.154L293.472 291.02C314.598 284.561 326.488 262.199 320.029 241.073L304.895 191.57C298.436 170.444 276.074 158.554 254.948 165.013L205.445 180.147ZM255.062 255.522C266.246 252.103 272.541 240.264 269.122 229.08C265.702 217.895 253.864 211.601 242.679 215.02C231.495 218.439 225.2 230.278 228.619 241.463C232.039 252.647 243.878 258.942 255.062 255.522Z" fill="white"/>
<path fill-rule="evenodd" clip-rule="evenodd" d="M179.137 227.506C168.765 247.012 176.17 271.232 195.676 281.603L241.381 305.905C260.887 316.277 285.107 308.872 295.478 289.366L319.78 243.661C330.151 224.155 322.746 199.935 303.241 189.564L257.535 165.262C238.03 154.891 213.81 162.295 203.439 181.801L179.137 227.506ZM255.062 255.522C266.246 252.103 272.541 240.264 269.122 229.08C265.702 217.895 253.864 211.601 242.679 215.02C231.495 218.439 225.2 230.278 228.619 241.463C232.039 252.647 243.878 258.942 255.062 255.522Z" fill="white"/>
</g>
<defs>
<clipPath id="clip0_4_130">
<rect width="512" height="512" fill="white"/>
</clipPath>
</defs>
</svg>
