<svg width="512" height="512" viewBox="0 0 512 512" fill="none" xmlns="http://www.w3.org/2000/svg">
<g clip-path="url(#clip0_47_73)">
<rect width="512" height="512" rx="140" fill="#333546"/>
<path fill-rule="evenodd" clip-rule="evenodd" d="M96 176C96 131.817 131.817 96 176 96H336C380.183 96 416 131.817 416 176V336C416 380.183 380.183 416 336 416H176C131.817 416 96 380.183 96 336V176ZM116 255.502C116 248.727 121.492 243.236 128.267 243.236H175.767L209.245 209.757C211.1 207.902 213.403 206.765 215.805 206.347C219.729 205.518 223.98 206.627 227.027 209.674L264.016 246.663C264.309 246.956 264.584 247.26 264.842 247.574C264.89 247.621 264.938 247.668 264.985 247.716L293.476 276.207L322.051 247.632C323.399 246.284 324.983 245.315 326.669 244.726C328.132 244.11 329.739 243.77 331.425 243.77H383.733C390.508 243.77 396 249.262 396 256.037C396 262.812 390.508 268.304 383.733 268.304H336.074L302.409 301.969C300.554 303.824 298.251 304.961 295.848 305.379C291.925 306.208 287.674 305.099 284.627 302.052L247.638 265.063C247.345 264.77 247.069 264.466 246.812 264.152C246.764 264.105 246.716 264.058 246.668 264.01L218.178 235.519L189.603 264.094C187.881 265.816 185.774 266.919 183.56 267.403C182.604 267.642 181.605 267.769 180.575 267.769H128.267C121.492 267.769 116 262.277 116 255.502Z" fill="white"/>
</g>
<defs>
<clipPath id="clip0_47_73">
<rect width="512" height="512" fill="white"/>
</clipPath>
</defs>
</svg>
