<svg width="512" height="512" viewBox="0 0 512 512" fill="none" xmlns="http://www.w3.org/2000/svg">
<g clip-path="url(#clip0_58_137)">
<rect width="512" height="512" rx="140" fill="#3B3B3B"/>
<path d="M175.53 162.04H198.314L260.778 331H237.354L222.762 290.296H151.082L136.234 331H112.81L175.53 162.04ZM158.122 270.584H215.85L187.178 188.92H186.794L158.122 270.584ZM362.67 331V310.52C361.987 312.653 359.982 315.597 356.654 319.352C353.411 323.107 348.931 326.52 343.214 329.592C337.582 332.579 330.926 334.072 323.246 334.072C313.518 334.072 304.686 331.768 296.75 327.16C288.899 322.552 282.627 316.109 277.934 307.832C273.326 299.469 271.022 289.699 271.022 278.52C271.022 267.341 273.326 257.613 277.934 249.336C282.627 240.973 288.899 234.488 296.75 229.88C304.686 225.187 313.518 222.84 323.246 222.84C330.841 222.84 337.411 224.205 342.958 226.936C348.59 229.667 353.07 232.824 356.398 236.408C359.811 239.992 361.817 243.064 362.414 245.624V225.912H384.43V331H362.67ZM293.038 278.52C293.038 286.115 294.702 292.685 298.03 298.232C301.358 303.779 305.667 308.088 310.958 311.16C316.334 314.147 322.051 315.64 328.11 315.64C334.595 315.64 340.398 314.104 345.518 311.032C350.638 307.96 354.691 303.651 357.678 298.104C360.665 292.472 362.158 285.944 362.158 278.52C362.158 271.096 360.665 264.611 357.678 259.064C354.691 253.432 350.638 249.08 345.518 246.008C340.398 242.851 334.595 241.272 328.11 241.272C322.051 241.272 316.334 242.808 310.958 245.88C305.667 248.952 301.358 253.261 298.03 258.808C294.702 264.355 293.038 270.925 293.038 278.52Z" fill="white"/>
</g>
<defs>
<clipPath id="clip0_58_137">
<rect width="512" height="512" fill="white"/>
</clipPath>
</defs>
</svg>
