<svg width="512" height="512" viewBox="0 0 512 512" fill="none" xmlns="http://www.w3.org/2000/svg">
<g clip-path="url(#clip0_55_60)">
<rect width="512" height="512" rx="140" fill="#5F6173"/>
<path fill-rule="evenodd" clip-rule="evenodd" d="M166 96C143.909 96 126 113.909 126 136V376C126 398.091 143.909 416 166 416H346C368.091 416 386 398.091 386 376V136C386 113.909 368.091 96 346 96H166ZM176 130C164.954 130 156 138.954 156 150V210C156 221.046 164.954 230 176 230H336C347.046 230 356 221.046 356 210V150C356 138.954 347.046 130 336 130H176ZM156 270C156 258.954 164.954 250 176 250H196C207.046 250 216 258.954 216 270V290C216 301.046 207.046 310 196 310H176C164.954 310 156 301.046 156 290V270ZM246 250C234.954 250 226 258.954 226 270V290C226 301.046 234.954 310 246 310H266C277.046 310 286 301.046 286 290V270C286 258.954 277.046 250 266 250H246ZM296 270C296 258.954 304.954 250 316 250H336C347.046 250 356 258.954 356 270V290C356 301.046 347.046 310 336 310H316C304.954 310 296 301.046 296 290V270ZM176 320C164.954 320 156 328.954 156 340V360C156 371.046 164.954 380 176 380H196C207.046 380 216 371.046 216 360V340C216 328.954 207.046 320 196 320H176ZM226 340C226 328.954 234.954 320 246 320H266C277.046 320 286 328.954 286 340V360C286 371.046 277.046 380 266 380H246C234.954 380 226 371.046 226 360V340ZM316 320C304.954 320 296 328.954 296 340V360C296 371.046 304.954 380 316 380H336C347.046 380 356 371.046 356 360V340C356 328.954 347.046 320 336 320H316Z" fill="white"/>
</g>
<defs>
<clipPath id="clip0_55_60">
<rect width="512" height="512" fill="white"/>
</clipPath>
</defs>
</svg>
