<svg width="512" height="512" viewBox="0 0 512 512" fill="none" xmlns="http://www.w3.org/2000/svg">
<g clip-path="url(#clip0_54_40)">
<rect width="512" height="512" rx="140" fill="#A6E39C"/>
<path fill-rule="evenodd" clip-rule="evenodd" d="M136 96C113.909 96 96 113.909 96 136V376C96 398.091 113.909 416 136 416H376C398.091 416 416 398.091 416 376V136C416 113.909 398.091 96 376 96H136ZM165.091 350.364C174.485 354.485 185.182 356.545 197.182 356.545C209.242 356.545 220 354.242 229.455 349.636C238.909 345.03 246.364 338.727 251.818 330.727C257.333 322.667 260.091 313.576 260.091 303.455C260.091 291.636 256.788 281.727 250.182 273.727C243.576 265.667 234.394 260.667 222.636 258.727V257.273C232.03 254.424 239.455 249.303 244.909 241.909C250.424 234.515 253.182 225.576 253.182 215.091C253.182 206.303 250.97 198.121 246.545 190.545C242.121 182.97 235.788 176.879 227.545 172.273C219.303 167.606 209.424 165.273 197.909 165.273C187.182 165.273 177.333 167.333 168.364 171.455C159.455 175.576 152.242 181.333 146.727 188.727C141.212 196.061 138.273 204.606 137.909 214.364H159.727C160.03 208.182 161.97 202.909 165.545 198.545C169.121 194.121 173.727 190.758 179.364 188.455C185.061 186.091 191.121 184.909 197.545 184.909C204.394 184.909 210.333 186.212 215.364 188.818C220.455 191.424 224.394 195.061 227.182 199.727C229.97 204.394 231.364 209.879 231.364 216.182C231.364 222.727 229.758 228.424 226.545 233.273C223.394 238.121 219 241.879 213.364 244.545C207.788 247.212 201.303 248.545 193.909 248.545H179V268.545H193.909C203.364 268.545 211.364 270.03 217.909 273C224.455 275.97 229.424 280.091 232.818 285.364C236.212 290.576 237.909 296.606 237.909 303.455C237.909 310 236.152 315.758 232.636 320.727C229.121 325.697 224.273 329.576 218.091 332.364C211.909 335.152 204.818 336.545 196.818 336.545C189.667 336.545 183.152 335.364 177.273 333C171.394 330.636 166.636 327.303 163 323C159.364 318.636 157.303 313.455 156.818 307.455H133.909C134.394 317.212 137.364 325.788 142.818 333.182C148.333 340.515 155.758 346.242 165.091 350.364ZM362.727 354V167.818H340.182L293.636 198.727V221.636L339.091 191.455H340.182V354H362.727Z" fill="white"/>
</g>
<defs>
<clipPath id="clip0_54_40">
<rect width="512" height="512" fill="white"/>
</clipPath>
</defs>
</svg>
