<svg width="512" height="512" viewBox="0 0 512 512" fill="none" xmlns="http://www.w3.org/2000/svg">
<g clip-path="url(#clip0_16_2)">
<rect width="512" height="512" rx="140" fill="#FF93F5"/>
<path fill-rule="evenodd" clip-rule="evenodd" d="M96 198C96 178.67 111.67 163 131 163H381C400.33 163 416 178.67 416 198V344C416 363.33 400.33 379 381 379H131C111.67 379 96 363.33 96 344V198ZM323 270.5C323 307.779 292.779 338 255.5 338C218.221 338 188 307.779 188 270.5C188 233.221 218.221 203 255.5 203C292.779 203 323 233.221 323 270.5ZM383.5 213C393.165 213 401 205.165 401 195.5C401 185.835 393.165 178 383.5 178C373.835 178 366 185.835 366 195.5C366 205.165 373.835 213 383.5 213Z" fill="white"/>
<path d="M178 163C178 146.431 191.431 133 208 133H303C319.569 133 333 146.431 333 163V165H178V163Z" fill="white"/>
</g>
<defs>
<clipPath id="clip0_16_2">
<rect width="512" height="512" fill="white"/>
</clipPath>
</defs>
</svg>
