<svg width="512" height="512" viewBox="0 0 512 512" fill="none" xmlns="http://www.w3.org/2000/svg">
<g clip-path="url(#clip0_46_2)">
<rect width="512" height="512" rx="140" fill="#333546"/>
<path fill-rule="evenodd" clip-rule="evenodd" d="M176 96C131.817 96 96 131.817 96 176V336C96 380.183 131.817 416 176 416H336C380.183 416 416 380.183 416 336V176C416 131.817 380.183 96 336 96H176ZM171.304 176.061C164.024 169.952 153.17 170.902 147.061 178.182C140.952 185.462 141.902 196.316 149.182 202.425L212.802 255.809L149.646 308.803C142.366 314.912 141.416 325.766 147.525 333.046C153.634 340.326 164.488 341.276 171.768 335.167L250.861 268.8C258.141 262.691 259.091 251.837 252.982 244.557C251.609 242.92 249.995 241.603 248.236 240.614L171.304 176.061ZM358.792 171.883C349.288 171.883 341.584 179.587 341.584 189.091V322.626C341.584 332.129 349.288 339.834 358.792 339.834C368.296 339.834 376 332.129 376 322.626V189.091C376 179.588 368.296 171.883 358.792 171.883Z" fill="white"/>
</g>
<defs>
<clipPath id="clip0_46_2">
<rect width="512" height="512" fill="white"/>
</clipPath>
</defs>
</svg>
