<svg width="512" height="512" viewBox="0 0 512 512" fill="none" xmlns="http://www.w3.org/2000/svg">
<g clip-path="url(#clip0_58_86)">
<rect width="512" height="512" rx="140" fill="#5F7373"/>
<path fill-rule="evenodd" clip-rule="evenodd" d="M416 256C416 344.366 344.366 416 256 416C167.634 416 96 344.366 96 256C96 167.634 167.634 96 256 96C344.366 96 416 167.634 416 256ZM242.932 276.702C242.806 278.472 243.066 280.276 243.733 281.984C245.509 286.669 250.039 290 255.346 290C258.437 290 261.264 288.87 263.437 287.001L320.109 247.319C325.698 243.406 327.003 235.741 323.024 230.198C319.045 224.656 311.289 223.335 305.7 227.248L267.761 253.814V162.415C267.761 155.558 262.203 150 255.346 150C248.49 150 242.932 155.558 242.932 162.415V276.702Z" fill="white"/>
</g>
<defs>
<clipPath id="clip0_58_86">
<rect width="512" height="512" fill="white"/>
</clipPath>
</defs>
</svg>
