<svg width="512" height="512" viewBox="0 0 512 512" fill="none" xmlns="http://www.w3.org/2000/svg">
<g clip-path="url(#clip0_60_29)">
<rect width="512" height="512" rx="140" fill="#5F7373"/>
<path fill-rule="evenodd" clip-rule="evenodd" d="M131 136C131 113.909 148.909 96 171 96H341C363.091 96 381 113.909 381 136V376C381 398.091 363.091 416 341 416H171C148.909 416 131 398.091 131 376V136ZM156 338C156 326.954 164.954 318 176 318H336C347.046 318 356 326.954 356 338V368C356 379.046 347.046 388 336 388H176C164.954 388 156 379.046 156 368V338ZM256 303C305.706 303 346 262.706 346 213C346 163.294 305.706 123 256 123C206.294 123 166 163.294 166 213C166 262.706 206.294 303 256 303Z" fill="white"/>
<circle cx="256" cy="213" r="25" fill="white"/>
</g>
<defs>
<clipPath id="clip0_60_29">
<rect width="512" height="512" fill="white"/>
</clipPath>
</defs>
</svg>
